<svg xmlns="http://www.w3.org/2000/svg" xmlns:xlink="http://www.w3.org/1999/xlink" contentStyleType="text/css" data-diagram-type="ACTIVITY" height="827px" preserveAspectRatio="none" style="width:508px;height:827px;background:#FFFFFF;" version="1.1" viewBox="0 0 508 827" width="508px" zoomAndPan="magnify"><defs/><g><ellipse cx="267.6802" cy="20" fill="#222222" rx="10" ry="10" style="stroke:#222222;stroke-width:1;"/><rect fill="none" height="416.1094" style="stroke:#000000;stroke-width:1.5;" width="482.2119" x="11" y="40"/><path d="M110.3662,40 L110.3662,49.2969 L100.3662,59.2969 L11,59.2969" fill="none" style="stroke:#000000;stroke-width:1.5;"/><text fill="#000000" font-family="sans-serif" font-size="14" lengthAdjust="spacing" textLength="89.3662" x="14" y="53.9951">Task 1 - Reis</text><rect fill="#F1F1F1" height="33.9688" rx="12.5" ry="12.5" style="stroke:#181818;stroke-width:0.5;" width="75.0313" x="230.1646" y="76.2969"/><text fill="#000000" font-family="sans-serif" font-size="12" lengthAdjust="spacing" textLength="55.0313" x="240.1646" y="97.4355">Start reis</text><rect fill="#F1F1F1" height="33.9688" rx="12.5" ry="12.5" style="stroke:#181818;stroke-width:0.5;" width="172.4082" x="181.4761" y="130.2656"/><text fill="#000000" font-family="sans-serif" font-size="12" lengthAdjust="spacing" textLength="152.4082" x="191.4761" y="151.4043">Onderweg naar Deventer</text><rect fill="#F1F1F1" height="33.9688" rx="12.5" ry="12.5" style="stroke:#181818;stroke-width:0.5;" width="148.2559" x="193.5522" y="184.2344"/><text fill="#000000" font-family="sans-serif" font-size="12" lengthAdjust="spacing" textLength="128.2559" x="203.5522" y="205.373">bInDeventer := TRUE</text><rect fill="#F1F1F1" height="33.9688" rx="12.5" ry="12.5" style="stroke:#181818;stroke-width:0.5;" width="288.0957" x="123.6323" y="238.2031"/><text fill="#000000" font-family="sans-serif" font-size="12" lengthAdjust="spacing" textLength="268.0957" x="133.6323" y="259.3418">Status: "Ik ben in Deventer, wacht op koffie"</text><polygon fill="#F1F1F1" points="225.3479,292.1719,310.0125,292.1719,322.0125,304.1719,310.0125,316.1719,225.3479,316.1719,213.3479,304.1719,225.3479,292.1719" style="stroke:#181818;stroke-width:0.5;"/><text fill="#000000" font-family="sans-serif" font-size="11" lengthAdjust="spacing" textLength="84.6646" x="225.3479" y="307.98">bKoffieGereed?</text><text fill="#000000" font-family="sans-serif" font-size="11" lengthAdjust="spacing" textLength="9.7969" x="203.551" y="301.5776">ja</text><text fill="#000000" font-family="sans-serif" font-size="11" lengthAdjust="spacing" textLength="20.5068" x="322.0125" y="301.5776">nee</text><rect fill="#F1F1F1" height="33.9688" rx="12.5" ry="12.5" style="stroke:#181818;stroke-width:0.5;" width="252.3418" x="23" y="326.1719"/><text fill="#000000" font-family="sans-serif" font-size="12" lengthAdjust="spacing" textLength="232.3418" x="33" y="347.3105">Status: "Koffie ontvangen, reis verder"</text><rect fill="#F1F1F1" height="33.9688" rx="12.5" ry="12.5" style="stroke:#181818;stroke-width:0.5;" width="90.9043" x="103.7188" y="380.1406"/><text fill="#000000" font-family="sans-serif" font-size="12" lengthAdjust="spacing" textLength="70.9043" x="113.7188" y="401.2793">Naar school</text><rect fill="#F1F1F1" height="33.9688" rx="12.5" ry="12.5" style="stroke:#181818;stroke-width:0.5;" width="181.6953" x="295.3418" y="326.1719"/><text fill="#000000" font-family="sans-serif" font-size="12" lengthAdjust="spacing" textLength="161.6953" x="305.3418" y="347.3105">Wachten op bKoffieGereed</text><polygon fill="#F1F1F1" points="267.6802,420.1094,279.6802,432.1094,267.6802,444.1094,255.6802,432.1094,267.6802,420.1094" style="stroke:#181818;stroke-width:0.5;"/><rect fill="none" height="308.1719" style="stroke:#000000;stroke-width:1.5;" width="457.7979" x="39.5889" y="466.1094"/><path d="M149.5371,466.1094 L149.5371,475.4063 L139.5371,485.4063 L39.5889,485.4063" fill="none" style="stroke:#000000;stroke-width:1.5;"/><text fill="#000000" font-family="sans-serif" font-size="14" lengthAdjust="spacing" textLength="99.9482" x="42.5889" y="480.1045">Task 2 - Koffie</text><polygon fill="#F1F1F1" points="230.6169,502.4063,304.7434,502.4063,316.7434,514.4063,304.7434,526.4063,230.6169,526.4063,218.6169,514.4063,230.6169,502.4063" style="stroke:#181818;stroke-width:0.5;"/><text fill="#000000" font-family="sans-serif" font-size="11" lengthAdjust="spacing" textLength="74.1265" x="230.6169" y="518.2144">bInDeventer?</text><text fill="#000000" font-family="sans-serif" font-size="11" lengthAdjust="spacing" textLength="9.7969" x="208.8201" y="511.812">ja</text><text fill="#000000" font-family="sans-serif" font-size="11" lengthAdjust="spacing" textLength="20.5068" x="316.7434" y="511.812">nee</text><rect fill="#F1F1F1" height="33.9688" rx="12.5" ry="12.5" style="stroke:#181818;stroke-width:0.5;" width="126.7109" x="93.9189" y="536.4063"/><text fill="#000000" font-family="sans-serif" font-size="12" lengthAdjust="spacing" textLength="106.7109" x="103.9189" y="557.5449">Start koffieproces</text><rect fill="#F1F1F1" height="33.9688" rx="12.5" ry="12.5" style="stroke:#181818;stroke-width:0.5;" width="195.3711" x="59.5889" y="590.375"/><text fill="#000000" font-family="sans-serif" font-size="12" lengthAdjust="spacing" textLength="175.3711" x="69.5889" y="611.5137">Status: "Koffie halen gestart"</text><rect fill="#F1F1F1" height="33.9688" rx="12.5" ry="12.5" style="stroke:#181818;stroke-width:0.5;" width="106.4551" x="104.0469" y="644.3438"/><text fill="#000000" font-family="sans-serif" font-size="12" lengthAdjust="spacing" textLength="86.4551" x="114.0469" y="665.4824">Koffie gehaald</text><rect fill="#F1F1F1" height="33.9688" rx="12.5" ry="12.5" style="stroke:#181818;stroke-width:0.5;" width="159.752" x="77.3984" y="698.3125"/><text fill="#000000" font-family="sans-serif" font-size="12" lengthAdjust="spacing" textLength="139.752" x="87.3984" y="719.4512">bKoffieGereed := TRUE</text><rect fill="#F1F1F1" height="33.9688" rx="12.5" ry="12.5" style="stroke:#181818;stroke-width:0.5;" width="206.252" x="274.96" y="536.4063"/><text fill="#000000" font-family="sans-serif" font-size="12" lengthAdjust="spacing" textLength="186.252" x="284.96" y="557.5449">Wacht tot bInDeventer TRUE is</text><polygon fill="#F1F1F1" points="267.6802,738.2813,279.6802,750.2813,267.6802,762.2813,255.6802,750.2813,267.6802,738.2813" style="stroke:#181818;stroke-width:0.5;"/><ellipse cx="267.6802" cy="805.2813" fill="none" rx="11" ry="11" style="stroke:#222222;stroke-width:1;"/><ellipse cx="267.6802" cy="805.2813" fill="#222222" rx="6" ry="6" style="stroke:#222222;stroke-width:1;"/><line style="stroke:#181818;stroke-width:1;" x1="267.6802" x2="267.6802" y1="110.2656" y2="130.2656"/><polygon fill="#181818" points="263.6802,120.2656,267.6802,130.2656,271.6802,120.2656,267.6802,124.2656" style="stroke:#181818;stroke-width:1;"/><line style="stroke:#181818;stroke-width:1;" x1="267.6802" x2="267.6802" y1="164.2344" y2="184.2344"/><polygon fill="#181818" points="263.6802,174.2344,267.6802,184.2344,271.6802,174.2344,267.6802,178.2344" style="stroke:#181818;stroke-width:1;"/><line style="stroke:#181818;stroke-width:1;" x1="267.6802" x2="267.6802" y1="218.2031" y2="238.2031"/><polygon fill="#181818" points="263.6802,228.2031,267.6802,238.2031,271.6802,228.2031,267.6802,232.2031" style="stroke:#181818;stroke-width:1;"/><line style="stroke:#181818;stroke-width:1;" x1="149.1709" x2="149.1709" y1="360.1406" y2="380.1406"/><polygon fill="#181818" points="145.1709,370.1406,149.1709,380.1406,153.1709,370.1406,149.1709,374.1406" style="stroke:#181818;stroke-width:1;"/><line style="stroke:#181818;stroke-width:1;" x1="213.3479" x2="149.1709" y1="304.1719" y2="304.1719"/><line style="stroke:#181818;stroke-width:1;" x1="149.1709" x2="149.1709" y1="304.1719" y2="326.1719"/><polygon fill="#181818" points="145.1709,316.1719,149.1709,326.1719,153.1709,316.1719,149.1709,320.1719" style="stroke:#181818;stroke-width:1;"/><line style="stroke:#181818;stroke-width:1;" x1="322.0125" x2="386.1895" y1="304.1719" y2="304.1719"/><line style="stroke:#181818;stroke-width:1;" x1="386.1895" x2="386.1895" y1="304.1719" y2="326.1719"/><polygon fill="#181818" points="382.1895,316.1719,386.1895,326.1719,390.1895,316.1719,386.1895,320.1719" style="stroke:#181818;stroke-width:1;"/><line style="stroke:#181818;stroke-width:1;" x1="149.1709" x2="149.1709" y1="414.1094" y2="432.1094"/><line style="stroke:#181818;stroke-width:1;" x1="149.1709" x2="255.6802" y1="432.1094" y2="432.1094"/><polygon fill="#181818" points="245.6802,428.1094,255.6802,432.1094,245.6802,436.1094,249.6802,432.1094" style="stroke:#181818;stroke-width:1;"/><line style="stroke:#181818;stroke-width:1;" x1="386.1895" x2="386.1895" y1="360.1406" y2="432.1094"/><line style="stroke:#181818;stroke-width:1;" x1="386.1895" x2="279.6802" y1="432.1094" y2="432.1094"/><polygon fill="#181818" points="289.6802,428.1094,279.6802,432.1094,289.6802,436.1094,285.6802,432.1094" style="stroke:#181818;stroke-width:1;"/><line style="stroke:#181818;stroke-width:1;" x1="267.6802" x2="267.6802" y1="272.1719" y2="292.1719"/><polygon fill="#181818" points="263.6802,282.1719,267.6802,292.1719,271.6802,282.1719,267.6802,286.1719" style="stroke:#181818;stroke-width:1;"/><line style="stroke:#181818;stroke-width:1;" x1="267.6802" x2="267.6802" y1="30" y2="76.2969"/><polygon fill="#181818" points="263.6802,66.2969,267.6802,76.2969,271.6802,66.2969,267.6802,70.2969" style="stroke:#181818;stroke-width:1;"/><line style="stroke:#181818;stroke-width:1;" x1="157.2744" x2="157.2744" y1="570.375" y2="590.375"/><polygon fill="#181818" points="153.2744,580.375,157.2744,590.375,161.2744,580.375,157.2744,584.375" style="stroke:#181818;stroke-width:1;"/><line style="stroke:#181818;stroke-width:1;" x1="157.2744" x2="157.2744" y1="624.3438" y2="644.3438"/><polygon fill="#181818" points="153.2744,634.3438,157.2744,644.3438,161.2744,634.3438,157.2744,638.3438" style="stroke:#181818;stroke-width:1;"/><line style="stroke:#181818;stroke-width:1;" x1="157.2744" x2="157.2744" y1="678.3125" y2="698.3125"/><polygon fill="#181818" points="153.2744,688.3125,157.2744,698.3125,161.2744,688.3125,157.2744,692.3125" style="stroke:#181818;stroke-width:1;"/><line style="stroke:#181818;stroke-width:1;" x1="218.6169" x2="157.2744" y1="514.4063" y2="514.4063"/><line style="stroke:#181818;stroke-width:1;" x1="157.2744" x2="157.2744" y1="514.4063" y2="536.4063"/><polygon fill="#181818" points="153.2744,526.4063,157.2744,536.4063,161.2744,526.4063,157.2744,530.4063" style="stroke:#181818;stroke-width:1;"/><line style="stroke:#181818;stroke-width:1;" x1="316.7434" x2="378.0859" y1="514.4063" y2="514.4063"/><line style="stroke:#181818;stroke-width:1;" x1="378.0859" x2="378.0859" y1="514.4063" y2="536.4063"/><polygon fill="#181818" points="374.0859,526.4063,378.0859,536.4063,382.0859,526.4063,378.0859,530.4063" style="stroke:#181818;stroke-width:1;"/><line style="stroke:#181818;stroke-width:1;" x1="157.2744" x2="157.2744" y1="732.2813" y2="750.2813"/><line style="stroke:#181818;stroke-width:1;" x1="157.2744" x2="255.6802" y1="750.2813" y2="750.2813"/><polygon fill="#181818" points="245.6802,746.2813,255.6802,750.2813,245.6802,754.2813,249.6802,750.2813" style="stroke:#181818;stroke-width:1;"/><line style="stroke:#181818;stroke-width:1;" x1="378.0859" x2="378.0859" y1="570.375" y2="750.2813"/><line style="stroke:#181818;stroke-width:1;" x1="378.0859" x2="279.6802" y1="750.2813" y2="750.2813"/><polygon fill="#181818" points="289.6802,746.2813,279.6802,750.2813,289.6802,754.2813,285.6802,750.2813" style="stroke:#181818;stroke-width:1;"/><line style="stroke:#181818;stroke-width:1;" x1="267.6802" x2="267.6802" y1="444.1094" y2="502.4063"/><polygon fill="#181818" points="263.6802,492.4063,267.6802,502.4063,271.6802,492.4063,267.6802,496.4063" style="stroke:#181818;stroke-width:1;"/><line style="stroke:#181818;stroke-width:1;" x1="267.6802" x2="267.6802" y1="762.2813" y2="794.2813"/><polygon fill="#181818" points="263.6802,784.2813,267.6802,794.2813,271.6802,784.2813,267.6802,788.2813" style="stroke:#181818;stroke-width:1;"/><!--SRC=[TLAxJiGm4Epp5QDKEUaee4o4Q43eX0JISOZQIJQ9IRIEx2LN8FuTvtc9qBbmCRkpdfcr4sKb25f_Qz664PwKgt6B6nn9kn0_0Vo9t_i-M0yb8_36ETapbM2bB1wf8nQoKp4zy8mWliVf-F6KB7FasyK83pLIOcXUk7kSLLO9J8lQ58McC0a6aYuGfIy3z4oMA7_OGIfFZhxKRkZOZXvROLWwnINnVj2DZgoN72ONnciltMMLCSs8KkC84HEjndxselnZNjP6nCJWN1V1x_y4xto2O_kSuM3Z4inL4pxdqNzhJKOkkUwmKeqVK9BhIMjZKxsaIgacNnKs3hQhkUeTOWJhZVOSp1zX2S29QVy0]--></g></svg>